<?xml version="1.0" encoding="UTF-8"?>
<svg id="Ebene_1" xmlns="http://www.w3.org/2000/svg" version="1.1" viewBox="0 0 1080 1080">
  <!-- Generator: Adobe Illustrator 29.8.4, SVG Export Plug-In . SVG Version: 2.1.1 Build 6)  -->
  <rect x="0" y="0" width="100%" height="100%" fill="black" />
  <path fill="white" d="M491.14,286.15c.98-.51,1.96-.7,3.08-.74,123.2-4.08,145.67,151.27,84.69,232.6-12.73,16.98-40.47,52.16-63.83,32.73-19.2-15.97,8.44-30.98,18.43-40.63,16.48-15.93,32.8-45.14,37.17-67.69,9.2-47.48-12.61-124.81-73.98-116,.31,8.91.4,17.85.67,26.77,1.57,52.71,0,105.37-9.2,157.4-8.88,50.27-26.07,102.89-65.07,137.7,22.48,14.8,44.49,35.96,57.75,59.6,25.03,44.59,15.72,101.34-4.16,146.07-5.92,13.31-14.28,25.17-20.26,38.41,12.18,4.66,33.07,6.92,43.4,14.59,13.69,10.17,3.5,31.18-10.41,31.24-8.71.04-30.48-7.35-39.77-10.23-11.58-3.59-36.68-8.9-38.88-22.92s15.62-34.49,22.41-46.69c26.84-48.25,42.94-118.15-4.89-159.02-6.4-5.47-28.61-19.91-36.25-21.38-6.14-1.18-24.42,6.86-32.1,8.54-23.51,5.14-49.06,4.27-72.91,2.43-3.59,14.89-8.27,29.59-13.2,44.08-14.24,41.84-32.37,83.02-51.5,122.8-8.14,16.92-31.31,68.56-43.29,78.93-8.81,7.62-30.7,9.86-42.38,11.09-14.92,1.56-41.67,6.02-43.39-15.62-.95-11.95,8.5-16.36,18.6-18.19,13.43-2.44,27.74-2.55,41.35-3.79,1.25-.42,7.1-10.68,8.22-12.61,10.21-17.79,20.1-38.55,28.95-57.16,25.33-53.3,46.56-108.63,64.68-164.82-79.7-27.3-111.01-116.06-120.05-192.8-2.84-24.07-2.09-48.41-5.03-72.4-33.55,1.9-71.66,25.75-78.76,60.31-7.83,38.1,21.86,81.46,54.52,98.99,13.13,7.05,32.09,9.83,29.79,29.77-2.76,24.01-32.7,11.49-45.52,4.71-79.95-42.29-115.46-149.18-33.09-209.71,22.24-16.34,47.47-25,75.22-25.82,3.79-96.07,30.54-218.8,136.27-248.79,36.31-10.3,78.92-7.88,113.7,6.8,64.38,27.19,95.71,96.75,109.05,161.44ZM308.35,188.42c-57.87,6.51-64.14,108-66.52,151.53-3.56,65.14-6.57,169.75,21.41,229.29,25.83,54.94,81.87,51.82,105.79-2.09,16.86-37.97,19.42-93.45,20.72-134.83,1.44-46.08,1.84-95.92-4.97-141.57-6.09-40.81-22.45-108.4-76.44-102.33Z"/>
  <path fill="white" d="M816.12,383.36c-9.84,4.01-19.37,8.75-29.19,12.82-17.69,7.35-45.19,21.73-62.14,6.63-12.53-11.16-6.32-25.22,4.2-34.72,30.89-27.9,89.47-69.17,127.63-84.86,41.78-17.17,49.15,13.84,50.49,47.66,1.33,33.39-3.32,68.59-1.45,101.44.1,1.76.35,3.42.8,5.11,56.79,7.16,139.3,22.24,156.52,86.88,8.1,30.42-.65,78.88-17.15,105.76-6.1,9.93-18.44,16.34-28.97,8.41-7.72-5.82-8.3-12.93-5.63-21.48,9.18-29.34,22.14-46,14.95-79.51-11.38-52.99-76.8-55.17-119.79-63.88l-1.4,153.67c28.25,21.92,52.47,49.27,64.61,83.46,15.29,43.06,11.65,99.34,1.73,143.42-1.7,7.55-4.16,14.9-5.84,22.45.62,2.17,35.74,16.05,40.91,18.84,18.17,9.81,11.12,32.59-9.5,32.95-13.03.23-36.85-13.54-49.56-19.03-5.25-2.27-12.26-3.31-16.22-7.39-12.86-13.24.2-40.21,4.38-55.19,13.98-50.06,20.93-104.72-10.49-149.81-5.93-8.51-13.31-16.94-21.4-23.39v42.01c0,8.06-11.66,14.91-18.71,16.01-10.8,1.68-47.51,2.49-57.13-.58-5.64-1.8-13.04-10.2-13.04-16.12v-51.73c-49.15,6.37-69.32,51.97-74.29,96.19-3.57,31.7.14,75.39,10.21,105.74,3.02,9.09,7.91,17.99,11.13,27.06,3.78,10.63,7.7,18.52-2.58,26.93-6.79,5.55-47.59,23.79-55.93,24.63-10.86,1.1-24.65-3.37-24.7-16.31-.07-20.11,31.94-23.01,44.33-32.61-5.96-14.46-11.29-28.18-14.64-43.56-16.29-74.78-5.64-193.87,81.47-219.66,6.83-2.02,16.52-2.87,22.55-5.23.82-.32,1.67-.46,2.11-1.36l1.73-99.32c-49.03.53-101.1-10.84-140.2-41.39-13.4-10.47-45.26-39.46-23.62-56.11,16.68-12.83,26.16,6.97,35,16.96,14.86,16.79,42.31,29.47,63.55,35.75,21.2,6.27,43.12,8.96,65.27,7.99v-105.55Z"/>
</svg>